<svg xmlns="http://www.w3.org/2000/svg" x="0px" y="0px"
width="32" height="32"
viewBox="0 0 32 32">
    <path d="M 14.841797 4 C 9.3557969 4 4 4.3522188 4 8.5742188 C 4 9.8842188 4.5227344 10.922156 5.5527344 11.660156 C 5.6687344 11.743156 5.7363281 11.898219 5.7363281 12.074219 L 5.7363281 25.349609 C 5.7363281 26.811609 6.9656094 28 8.4746094 28 L 10.572266 28 L 22.369141 28 L 23.429688 28 C 24.846688 28 26 26.811609 26 25.349609 L 26 12.074219 C 26 11.886219 26.064062 11.713766 26.164062 11.634766 C 27.178062 10.830766 27.714844 9.7712187 27.714844 8.5742188 C 27.714844 4.1492188 21.058203 4.0059531 17.158203 4.0019531 L 14.841797 4 z M 16.761719 6 C 22.952719 6 25.714844 6.7932188 25.714844 8.5742188 C 25.714844 9.1632188 25.462875 9.6374062 24.921875 10.066406 C 24.345875 10.524406 24 11.275219 24 12.074219 L 24 25.349609 C 24 25.707609 23.744687 26 23.429688 26 L 10.570312 26 C 10.255313 26 10 25.707609 10 25.349609 L 10 12.074219 C 10 11.276219 9.656125 10.526406 9.078125 10.066406 C 8.537125 9.6384063 8.2851563 9.1632188 8.2851562 8.5742188 C 8.2851562 6.7452188 10.740719 6 16.761719 6 z M 13 15 A 1 1 0 0 0 12 16 A 1 1 0 0 0 13 17 A 1 1 0 0 0 14 16 A 1 1 0 0 0 13 15 z M 21 15 A 1 1 0 0 0 20 16 A 1 1 0 0 0 21 17 A 1 1 0 0 0 22 16 A 1 1 0 0 0 21 15 z M 15 18 C 15 19.105 15.895 20 17 20 C 18.105 20 19 19.105 19 18 L 15 18 z"></path>
</svg>