<svg xmlns="http://www.w3.org/2000/svg" x="0px" y="0px"
width="32" height="32"
viewBox="0 0 32 32">
<path d="M 23.03125 4 C 20.246094 4 18.300781 4.867188 16.78125 6.21875 C 13.453125 5.582031 10.355469 7.769531 9.75 10.90625 C 8.121094 11.421875 6.839844 12.355469 6.125 13.625 C 5.394531 14.925781 5.238281 16.449219 5.46875 17.96875 C 4.4375 19.363281 4 21.207031 4 22.96875 C 4 24.425781 4.421875 26.0625 5.75 27.1875 L 5.71875 27.21875 C 5.734375 27.234375 5.761719 27.234375 5.78125 27.25 C 5.792969 27.261719 5.800781 27.269531 5.8125 27.28125 C 6.574219 27.976563 7.667969 28.117188 8.65625 27.875 C 9.679688 27.625 10.710938 27.0625 11.84375 26.28125 C 14.109375 24.71875 16.746094 22.269531 19.5625 19.5 C 21.820313 17.238281 23.882813 15.132813 25.40625 13.21875 C 26.929688 11.304688 28 9.566406 28 7.75 C 28 6.503906 27.195313 5.507813 26.25 4.90625 C 25.304688 4.304688 24.164063 4 23.03125 4 Z M 23.03125 6 C 23.769531 6 24.621094 6.230469 25.1875 6.59375 C 25.753906 6.957031 26 7.34375 26 7.75 C 26 8.6875 25.261719 10.1875 23.84375 11.96875 C 22.425781 13.75 20.410156 15.804688 18.15625 18.0625 C 15.363281 20.808594 12.769531 23.210938 10.71875 24.625 C 9.691406 25.332031 8.800781 25.789063 8.1875 25.9375 C 7.574219 26.085938 7.351563 26.007813 7.125 25.78125 L 7.0625 25.71875 C 6.265625 25.082031 6 24.125 6 22.96875 C 6 21.613281 6.371094 20.144531 6.9375 19.25 C 8.339844 19.480469 9.59375 20.5 9.59375 20.5 L 10.90625 19 C 10.90625 19 9.441406 17.597656 7.34375 17.25 C 7.269531 16.265625 7.453125 15.34375 7.875 14.59375 C 8.390625 13.671875 9.269531 12.96875 10.6875 12.625 C 12.671875 12.710938 14.1875 14.0625 14.1875 14.0625 L 15.5625 12.59375 C 15.5625 12.59375 14.027344 11.140625 11.71875 10.71875 C 12.40625 8.859375 14.601563 7.519531 16.78125 8.15625 C 17.328125 8.304688 18.136719 8.792969 18.71875 9.25 C 19.300781 9.707031 19.6875 10.09375 19.6875 10.09375 L 21.09375 8.6875 C 21.09375 8.6875 20.625 8.195313 19.9375 7.65625 C 19.644531 7.429688 19.300781 7.195313 18.9375 6.96875 C 19.933594 6.335938 21.167969 6 23.03125 6 Z"></path>
</svg>