<svg xmlns="http://www.w3.org/2000/svg" x="0px" y="0px"
width="32" height="32"
viewBox="0 0 32 32">
<path d="M1 10.761L1 13.602 2.364 13.602 3.727 15.023 6.455 17.864 7.818 17.864 7.818 15.023 10.545 13.602 7.818 9.341 9.182 6.5 7.818 6.5 3.727 7.92 2.364 10.761zM9.182 5.818L10.545 7.182 10.545 9.909 11.909 9.909 13.273 7.182 13.273 4.455zM7.506 19L6 20.667 7.506 24 6 29 7.506 29 12.023 22.333zM13.421 13.642L12.023 16.601 13.421 18.081 14.82 18.081 14.82 22.52 16.219 24 19.016 18.081 17.617 15.121zM14.886 7.11L13.421 8.665 14.886 8.665 13.421 11.774 17.816 14.884 20.746 13.329 22.211 16.439 23.676 16.439 28.07 10.219 26.605 10.219 31 7.11 29.535 5.555 25.14 5.555 22.211 4 17.816 7.11zM24.61 17.689L23.212 19.087 26.009 19.087 28.806 20.486 26.009 17.689zM26.25 20.25L23.5 21.917 24.875 23.583 26.25 23.583 27.625 25.25 29 23.583 29 21.917z"></path>
</svg>