<svg xmlns="http://www.w3.org/2000/svg" x="0px" y="0px"
width="50" height="50"
viewBox="0 0 50 50">
<path d="M 13 -0.09375 C 6.332031 -0.09375 0.90625 5.332031 0.90625 12 C 0.90625 18.667969 6.332031 24.09375 13 24.09375 C 15.546875 24.09375 17.921875 23.285156 19.875 21.9375 L 28.03125 31.84375 C 28.011719 31.914063 28.003906 31.988281 28 32.0625 L 28 43.15625 C 27.066406 43.332031 25.113281 43.730469 22.71875 44.4375 C 21.183594 44.890625 19.640625 45.429688 18.40625 46.09375 C 17.789063 46.425781 17.25 46.800781 16.8125 47.25 C 16.375 47.699219 16 48.292969 16 49 C 16 49.550781 16.449219 50 17 50 L 41 50 C 41.550781 50 42 49.550781 42 49 C 42 48.292969 41.625 47.699219 41.1875 47.25 C 40.75 46.800781 40.210938 46.425781 39.59375 46.09375 C 38.359375 45.429688 36.816406 44.890625 35.28125 44.4375 C 32.886719 43.730469 30.933594 43.332031 30 43.15625 L 30 32.0625 C 29.996094 32 29.984375 31.9375 29.96875 31.875 L 45.78125 12.625 C 46.023438 12.324219 46.070313 11.914063 45.902344 11.566406 C 45.734375 11.21875 45.382813 11 45 11 L 25.0625 11 C 24.550781 4.792969 19.332031 -0.09375 13 -0.09375 Z M 13 2.09375 C 18.140625 2.09375 22.335938 6 22.84375 11 L 18.46875 11 C 18.878906 10.65625 19.066406 10.269531 18.8125 9.78125 C 17.945313 8.113281 14.886719 10.496094 13.8125 11.40625 L 13.78125 11.375 C 13.6875 11.257813 13.570313 11.160156 13.4375 11.09375 C 13.679688 9.59375 14.140625 5.839844 12.34375 6.03125 C 10.523438 6.226563 11.773438 9.878906 12.3125 11.25 C 12.203125 11.355469 12.117188 11.484375 12.0625 11.625 C 10.902344 11.003906 7.257813 9.207031 6.78125 11.0625 C 6.25 13.132813 11.597656 12.679688 12.21875 12.625 L 12.3125 12.75 C 11.941406 13.101563 8.183594 16.726563 9.84375 17.875 C 11.355469 18.917969 12.613281 14.695313 12.9375 13.5 L 18.5 20.25 C 16.925781 21.304688 15.042969 21.90625 13 21.90625 C 7.519531 21.90625 3.09375 17.480469 3.09375 12 C 3.09375 6.519531 7.519531 2.09375 13 2.09375 Z M 15.125 13 L 42.875 13 L 40.40625 16 L 17.59375 16 Z M 19.25 18 L 38.75 18 L 29 29.875 Z M 29 45.03125 C 29.148438 45.058594 31.867188 45.535156 34.71875 46.375 C 36.183594 46.804688 37.640625 47.328125 38.65625 47.875 C 38.738281 47.921875 38.765625 47.953125 38.84375 48 L 19.15625 48 C 19.234375 47.953125 19.261719 47.921875 19.34375 47.875 C 20.359375 47.328125 21.816406 46.804688 23.28125 46.375 C 26.132813 45.535156 28.851563 45.058594 29 45.03125 Z"></path>
</svg>