<svg xmlns="http://www.w3.org/2000/svg" x="0px" y="0px"
width="50" height="50"
viewBox="0 0 50 50">
<path d="M 13 2 L 13 4 L 23.125 4 L 23.8125 8.0625 C 16.09375 8.671875 10 15.128906 10 23 C 10 23.550781 10.449219 24 11 24 L 12.125 24 L 15 47.125 C 15.0625 47.628906 15.492188 48.003906 16 48 L 34 48 C 34.507813 48.003906 34.9375 47.628906 35 47.125 L 37.875 24 L 39 24 C 39.550781 24 40 23.550781 40 23 C 40 15.023438 33.738281 8.488281 25.875 8.03125 L 25 2.84375 C 24.921875 2.351563 24.496094 1.992188 24 2 Z M 25 10 C 31.847656 10 37.390625 15.285156 37.90625 22 L 12.09375 22 C 12.609375 15.285156 18.152344 10 25 10 Z M 14.125 24 L 35.875 24 L 35.375 28 L 31 28 C 30.96875 28 30.9375 28 30.90625 28 C 30.355469 28.027344 29.925781 28.496094 29.953125 29.046875 C 29.980469 29.597656 30.449219 30.027344 31 30 L 35.125 30 L 33.125 46 L 16.875 46 L 14.875 30 L 27 30 C 27.359375 30.003906 27.695313 29.816406 27.878906 29.503906 C 28.058594 29.191406 28.058594 28.808594 27.878906 28.496094 C 27.695313 28.183594 27.359375 27.996094 27 28 L 14.625 28 Z"></path>
</svg>