<svg xmlns="http://www.w3.org/2000/svg" x="0px" y="0px"
width="32" height="32"
viewBox="0 0 32 32">
<path d="M 3 7 L 3 8 L 3 12 C 3 12 2.99721 14.292392 4.0800781 16.851562 C 5.0926943 19.244708 7.209907 21.902971 11 23.181641 L 11 25 L 21 25 L 21 23.181641 C 24.790093 21.902971 26.907306 19.244708 27.919922 16.851562 C 29.002788 14.292392 29 12 29 12 L 29 7 L 3 7 z M 5 9 L 27 9 L 27 11 L 5 11 L 5 9 z M 5.0957031 13 L 26.904297 13 C 26.812497 13.758394 26.620354 14.790801 26.078125 16.072266 C 25.160742 18.240345 23.427848 20.571142 19.744141 21.548828 L 19 21.746094 L 19 23 L 13 23 L 13 21.746094 L 12.255859 21.548828 C 8.5721525 20.571142 6.8392585 18.240345 5.921875 16.072266 C 5.3796464 14.790801 5.1875071 13.758394 5.0957031 13 z"></path>
</svg>