<svg xmlns="http://www.w3.org/2000/svg" x="0px" y="0px"
width="32" height="32"
viewBox="0 0 32 32">
<path d="M 14 3 C 10.144531 3 7 6.144531 7 10 L 7 11 C 6.996094 11.042969 6.996094 11.082031 7 11.125 L 9 28.125 C 9.0625 28.628906 9.492188 29.003906 10 29 L 22 29 C 22.507813 29.003906 22.9375 28.628906 23 28.125 L 25 11.125 C 25.003906 11.082031 25.003906 11.042969 25 11 L 25 10 C 25 6.144531 21.855469 3 18 3 Z M 14 5 L 18 5 C 20.652344 5 22.789063 7.050781 22.96875 9.65625 C 21.953125 8.859375 20.359375 8.335938 18.34375 9 C 16.644531 6.882813 14.1875 7 14.1875 7 C 14.1875 7 15.308594 8.863281 15.40625 11.46875 C 14.472656 10.277344 13.589844 9.246094 12.6875 8.71875 C 11.058594 9.1875 9.898438 10.175781 9.1875 10.9375 C 9.066406 10.765625 9 10.542969 9 10.15625 L 9 10 C 9 7.226563 11.226563 5 14 5 Z M 22.84375 12.375 L 21.09375 27 L 17.625 27 C 16.6875 27 15.851563 26.277344 15.1875 25 C 14.523438 23.722656 14.15625 22.007813 14.15625 20.65625 C 14.15625 16.984375 15.265625 15.855469 16.40625 14.375 L 16.40625 14.34375 C 16.5625 14.132813 17.097656 13.804688 17.875 13.5625 C 18.652344 13.320313 19.628906 13.136719 20.59375 12.9375 C 21.378906 12.773438 22.144531 12.621094 22.84375 12.375 Z M 9.28125 13.40625 C 9.789063 13.609375 10.324219 13.738281 10.84375 13.84375 C 11.710938 14.019531 12.5625 14.132813 13.25 14.28125 C 13.496094 14.335938 13.6875 14.40625 13.875 14.46875 C 13 15.804688 12.15625 17.660156 12.15625 20.65625 C 12.15625 22.355469 12.558594 24.304688 13.40625 25.9375 C 13.601563 26.3125 13.839844 26.660156 14.09375 27 L 10.90625 27 Z M 17 16 C 16.449219 16 16 16.449219 16 17 C 16 17.550781 16.449219 18 17 18 C 17.550781 18 18 17.550781 18 17 C 18 16.449219 17.550781 16 17 16 Z M 19.5 18 C 19.222656 18 19 18.222656 19 18.5 C 19 18.777344 19.222656 19 19.5 19 C 19.777344 19 20 18.777344 20 18.5 C 20 18.222656 19.777344 18 19.5 18 Z M 17.5 20 C 17.222656 20 17 20.222656 17 20.5 C 17 20.777344 17.222656 21 17.5 21 C 17.777344 21 18 20.777344 18 20.5 C 18 20.222656 17.777344 20 17.5 20 Z"></path>
</svg>