<svg xmlns="http://www.w3.org/2000/svg" x="0px" y="0px"
width="50" height="50"
viewBox="0 0 50 50">
<path d="M 36.888672 2.0058594 L 27.888672 3.0058594 A 1.0001 1.0001 0 0 0 27.044922 3.7011719 L 24.763672 11 L 13 11 A 1.0001 1.0001 0 0 0 12 12 L 12 23 A 1.0001 1.0001 0 0 0 12.013672 23.164062 L 16.013672 47.164062 A 1.0001 1.0001 0 0 0 17 48 L 33 48 A 1.0001 1.0001 0 0 0 33.986328 47.164062 L 37.986328 23.164062 A 1.0001 1.0001 0 0 0 38 23 L 38 12 A 1.0001 1.0001 0 0 0 37 11 L 26.861328 11 L 28.759766 4.921875 L 37.111328 3.9941406 L 36.888672 2.0058594 z M 14 13 L 24.138672 13 L 22.263672 19 L 14 19 L 14 13 z M 26.236328 13 L 36 13 L 36 19 L 24.361328 19 L 26.236328 13 z M 14 21 L 36 21 L 36 22.917969 L 32.152344 46 L 17.847656 46 L 14 22.917969 L 14 21 z M 28.984375 23 A 1.0001 1.0001 0 0 0 28.292969 23.292969 L 25.292969 26.292969 A 1.0001 1.0001 0 0 0 25.292969 27.707031 L 28.292969 30.707031 A 1.0001 1.0001 0 0 0 29.707031 30.707031 L 32.707031 27.707031 A 1.0001 1.0001 0 0 0 32.707031 26.292969 L 29.707031 23.292969 A 1.0001 1.0001 0 0 0 28.984375 23 z M 29 25.414062 L 30.585938 27 L 29 28.585938 L 27.414062 27 L 29 25.414062 z M 19 30 A 1.0001 1.0001 0 0 0 18 31 L 18 35 A 1.0001 1.0001 0 0 0 19 36 L 23 36 A 1.0001 1.0001 0 0 0 24 35 L 24 31 A 1.0001 1.0001 0 0 0 23 30 L 19 30 z M 20 32 L 22 32 L 22 34 L 20 34 L 20 32 z M 26.984375 36 A 1.0001 1.0001 0 0 0 26.292969 36.292969 L 23.292969 39.292969 A 1.0001 1.0001 0 0 0 23.292969 40.707031 L 26.292969 43.707031 A 1.0001 1.0001 0 0 0 27.707031 43.707031 L 30.707031 40.707031 A 1.0001 1.0001 0 0 0 30.707031 39.292969 L 27.707031 36.292969 A 1.0001 1.0001 0 0 0 26.984375 36 z M 27 38.414062 L 28.585938 40 L 27 41.585938 L 25.414062 40 L 27 38.414062 z"></path>
</svg>