<svg xmlns="http://www.w3.org/2000/svg" x="0px" y="0px"
width="32" height="32"
viewBox="0 0 32 32">
<path d="M 27.59375 5.375 L 15 7.40625 L 15 9.21875 L 27.875 7.375 Z M 12.90625 5.96875 C 12.863281 5.976563 12.820313 5.988281 12.78125 6 C 12.316406 6.105469 11.988281 6.523438 12 7 L 12 13 C 11.996094 13.359375 12.183594 13.695313 12.496094 13.878906 C 12.808594 14.058594 13.191406 14.058594 13.503906 13.878906 C 13.816406 13.695313 14.003906 13.359375 14 13 L 14 7 C 14.011719 6.710938 13.894531 6.433594 13.6875 6.238281 C 13.476563 6.039063 13.191406 5.941406 12.90625 5.96875 Z M 9.8125 6.40625 C 9.324219 6.5 8.976563 6.9375 9 7.4375 L 9 13 C 8.996094 13.359375 9.183594 13.695313 9.496094 13.878906 C 9.808594 14.058594 10.191406 14.058594 10.503906 13.878906 C 10.816406 13.695313 11.003906 13.359375 11 13 L 11 7.4375 C 11.007813 7.167969 10.90625 6.90625 10.71875 6.710938 C 10.53125 6.515625 10.269531 6.40625 10 6.40625 C 9.96875 6.40625 9.9375 6.40625 9.90625 6.40625 C 9.875 6.40625 9.84375 6.40625 9.8125 6.40625 Z M 6.90625 6.96875 C 6.863281 6.976563 6.820313 6.988281 6.78125 7 C 6.316406 7.105469 5.988281 7.523438 6 8 L 6 8.875 L 3.875 9.21875 L 4.125 10.78125 L 6 10.53125 L 6 11.1875 L 4 11.1875 L 4 12.8125 L 6 12.8125 L 6 17 L 4 17 L 4 20 C 4 23.5 6.636719 26.273438 10 26.78125 L 10 28 L 23 28 L 23 26.59375 C 25.863281 25.714844 28 23.140625 28 20 L 28 17 L 8 17 L 8 8 C 8.011719 7.710938 7.894531 7.433594 7.6875 7.238281 C 7.476563 7.039063 7.191406 6.941406 6.90625 6.96875 Z M 28 11 L 15 11.09375 L 15 12.90625 L 28 13 Z M 6 19 L 26 19 L 26 20 C 26 22.488281 24.207031 24.539063 21.84375 24.9375 L 21 25.0625 L 21 26 L 12 26 L 12 25 L 11 25 C 8.226563 25 6 22.773438 6 20 Z"></path>
</svg>