<svg xmlns="http://www.w3.org/2000/svg" x="0px" y="0px"
width="64" height="64"
viewBox="0 0 64 64">
<path d="M 21.109375 23.996094 A 3.955 3.955 0 0 0 18.369141 24.996094 A 4.007 4.007 0 0 0 14.566406 28.267578 A 3.978 3.978 0 0 0 12 31.994141 C 12 32.093751 12.003409 32.194342 12.011719 32.294922 A 3.97341 3.97341 0 0 0 9.5 35.994141 C 9.5 36.093751 9.5034187 36.194342 9.5117188 36.294922 A 3.97341 3.97341 0 0 0 7 39.994141 A 0.999 0.999 0 0 0 7.4003906 40.794922 A 13.35909 13.35909 0 0 0 10.660156 42.390625 A 0.98036 0.98036 0 0 0 11 42.449219 A 0.99976 0.99976 0 0 0 11.339844 40.509766 A 14.50447 14.50447 0 0 1 9.0664062 39.484375 A 1.98977 1.98977 0 0 1 10.794922 38.021484 A 1.00115 1.00115 0 0 0 11.632812 36.681641 A 1.84518 1.84518 0 0 1 11.6875 35.185547 A 2.26212 2.26212 0 0 1 13.396484 34.005859 A 1.001 1.001 0 0 0 14.132812 32.681641 A 1.83716 1.83716 0 0 1 14.025391 31.699219 A 2.13341 2.13341 0 0 1 15.701172 30.025391 A 0.99984 0.99984 0 0 0 16.503906 29.044922 C 16.503906 29.019042 16.5024 28.985835 16.5 28.953125 A 2 2 0 0 1 18.515625 27 L 18.525391 27 C 18.542481 27.002 18.657228 27.016108 18.673828 27.017578 A 0.98821 0.98821 0 0 0 19.507812 26.681641 A 2.00806 2.00806 0 0 1 22.492188 26.681641 A 0.99406 0.99406 0 0 0 23.328125 27.017578 C 23.344725 27.016078 23.4834 26.996601 23.5 26.994141 A 2.00217 2.00217 0 0 1 25.5 28.953125 C 25.4976 28.985835 25.496094 29.018562 25.496094 29.044922 A 0.99984 0.99984 0 0 0 26.298828 30.025391 A 2.13341 2.13341 0 0 1 27.974609 31.699219 A 1.83716 1.83716 0 0 1 27.867188 32.681641 A 1.001 1.001 0 0 0 28.605469 34.005859 A 2.26212 2.26212 0 0 1 30.3125 35.185547 A 1.84518 1.84518 0 0 1 30.367188 36.681641 A 1.00122 1.00122 0 0 0 31.205078 38.021484 A 1.505 1.505 0 0 1 32.259766 38.667969 A 1 1 0 1 0 33.740234 37.322266 A 4.07739 4.07739 0 0 0 32.484375 36.326172 C 32.494615 36.214842 32.5 36.104461 32.5 35.994141 A 3.97341 3.97341 0 0 0 29.988281 32.294922 C 29.996581 32.194342 30 32.093751 30 31.994141 A 3.978 3.978 0 0 0 27.433594 28.267578 A 4.007 4.007 0 0 0 23.630859 24.996094 A 3.955 3.955 0 0 0 21.109375 23.996094 z M 31.001953 24.990234 C 30.316403 24.981934 29.635727 24.975553 28.960938 25.001953 A 0.99948 0.99948 0 0 0 28.001953 26.039062 A 0.9863 0.9863 0 0 0 29.041016 26.998047 C 29.679686 26.972167 30.323239 26.982417 30.974609 26.992188 C 31.314919 26.996577 31.65674 27 32 27 C 48.26172 27 62 32.49512 62 39 C 62 39.17871 61.957035 39.610174 61.953125 39.646484 C 61.081245 45.865114 47.72058 51 32 51 C 15.73828 51 2 45.50488 2 39 C 2 35.68848 5.673345 32.130854 11.359375 29.933594 A 0.99982 0.99982 0 0 0 10.640625 28.066406 C 4.077635 30.601566 0 34.792 0 39 C 0 39.01636 0.048465625 39.756468 0.072265625 39.923828 C 0.46496563 43.228458 2.99017 54.501766 19 58.541016 L 19 61.777344 A 0.99893 0.99893 0 0 0 19.777344 62.751953 A 55.17 55.17 0 0 0 32 64 A 55.17 55.17 0 0 0 44.222656 62.751953 A 0.99893 0.99893 0 0 0 45 61.777344 L 45 58.541016 C 61.00983 54.501766 63.535034 43.228458 63.927734 39.923828 C 63.951534 39.756468 64 39.01636 64 39 C 64 31.14941 49.94385 25 32 25 C 31.66553 25 31.333473 24.994634 31.001953 24.990234 z M 19 29 L 19 31 L 21 31 L 21 29 L 19 29 z M 32.517578 30 A 1.00069 1.00069 0 0 0 32.146484 31.929688 C 35.231484 33.162408 37.001953 34.64659 37.001953 36 A 3.62653 3.62653 0 0 1 35.771484 38.6875 C 31.788424 42.54641 19.298796 43.21889 12.472656 43 L 12.466797 43 A 1.00072 1.00072 0 0 0 12.095703 44.929688 C 16.991893 46.885038 24.245057 48.007813 31.998047 48.007812 C 44.610107 48.007812 58.015625 44.851393 58.015625 39.001953 C 58.015625 33.262953 44.882401 30.08062 32.525391 30 L 32.517578 30 z M 23 32 L 23 34 L 25 34 L 25 32 L 23 32 z M 36.705078 32.144531 C 48.262688 32.855531 56 36.10156 56 39 C 56 42.31055 46.14355 46 32 46 A 68.48744 68.48744 0 0 1 19.507812 44.916016 C 25.580572 44.603536 33.654299 43.522457 37.162109 40.123047 A 5.59933 5.59933 0 0 0 39 36 C 39 34.93848 38.525878 33.550311 36.705078 32.144531 z M 16 33 L 16 35 L 18 35 L 18 33 L 16 33 z M 41 35 L 41 37 L 43 37 L 43 35 L 41 35 z M 47.125 35.001953 A 3 3 0 0 0 44 38 A 3.00328 3.00328 0 0 0 47 41 A 3 3 0 0 0 47.125 35.001953 z M 20 36 L 20 38 L 22 38 L 22 36 L 20 36 z M 14 37 L 14 39 L 16 39 L 16 37 L 14 37 z M 26 37 L 26 39 L 28 39 L 28 37 L 26 37 z M 47 37 A 1 1 0 1 1 46 38 A 1.001 1.001 0 0 1 47 37 z M 52 38 L 52 40 L 54 40 L 54 38 L 52 38 z M 39.962891 39 A 0.99981 0.99981 0 0 0 39.292969 39.292969 L 36.292969 42.292969 A 0.99969 0.99969 0 0 0 36.683594 43.947266 L 39.683594 44.947266 A 0.97861 0.97861 0 0 0 40 45 A 0.99692 0.99692 0 0 0 40.447266 44.894531 L 44.447266 42.894531 A 1.00021 1.00021 0 0 0 44.447266 41.105469 L 40.447266 39.105469 A 0.99981 0.99981 0 0 0 39.962891 39 z M 40.197266 41.216797 L 41.763672 42 L 39.923828 42.919922 L 38.851562 42.5625 L 40.197266 41.216797 z M 33 43 L 33 45 L 35 45 L 35 43 L 33 43 z M 3.9570312 45.839844 C 9.3568112 50.142884 19.77319 53 32 53 C 44.09723 53 54.419677 50.203493 59.867188 45.976562 C 56.851138 51.397762 49.57166 58 32 58 C 14.06085 58 6.8566912 51.290404 3.9570312 45.839844 z M 21 58.990234 A 55.83915 55.83915 0 0 0 32 60 A 55.83915 55.83915 0 0 0 43 58.990234 L 43 60.970703 A 54.35077 54.35077 0 0 1 32 62 A 54.35077 54.35077 0 0 1 21 60.970703 L 21 58.990234 z"></path>
</svg>