<svg xmlns="http://www.w3.org/2000/svg" x="0px" y="0px"
width="64" height="64"
viewBox="0 0 512 512">
<path d="M 232 16 A 7.99877 7.99877 0 0 0 226.34375 18.34375 L 210.34375 34.34375 A 7.99879 7.99879 0 0 0 208.10938 41.316406 L 214.55664 80 L 120 80 A 7.99924 7.99924 0 0 0 112.8457 84.421875 L 91.056641 128 L 72 128 A 7.99956 7.99956 0 0 0 64.466797 138.69141 L 78.867188 179.01172 A 592.40692 592.40692 0 0 1 110.92383 324.52539 L 120.0332 424.72461 A 8.00085 8.00085 0 0 0 122.34375 429.65625 L 124.68555 432 L 24 432 A 7.99977 7.99977 0 0 0 16 440 A 56.06353 56.06353 0 0 0 72 496 L 440 496 A 56.06353 56.06353 0 0 0 496 440 A 7.99977 7.99977 0 0 0 488 432 L 387.31445 432 L 389.65625 429.65625 A 8.00085 8.00085 0 0 0 391.9668 424.72461 L 398.10547 357.20898 L 487.0293 268.28516 A 30.62726 30.62726 0 1 0 443.71484 224.9707 L 411.04688 257.64062 A 593.80791 593.80791 0 0 1 433.13281 179.01172 L 447.5332 138.69141 A 7.99956 7.99956 0 0 0 440 128 L 420.94336 128 L 399.1543 84.421875 A 7.99924 7.99924 0 0 0 392 80 L 297.44336 80 L 303.89062 41.316406 A 7.99879 7.99879 0 0 0 301.65625 34.34375 L 285.65625 18.34375 A 7.99877 7.99877 0 0 0 280 16 L 232 16 z M 235.31445 32 L 276.68555 32 L 287.43164 42.746094 L 281.22266 80 L 230.77734 80 L 224.56836 42.746094 L 235.31445 32 z M 124.94531 96 L 387.05469 96 L 403.05664 128 L 108.94336 128 L 124.94531 96 z M 83.351562 144 L 428.64844 144 L 422.93359 160 L 320 160 L 320 176 L 360 176 L 360 192 L 320 192 L 320 208 L 406.94531 208 C 405.39798 213.312 403.9217 218.64533 402.51758 224 L 109.47461 224 C 108.07227 218.64771 106.59745 213.31437 105.05273 208 L 192 208 L 192 192 L 152 192 L 152 176 L 192 176 L 192 160 L 89.066406 160 L 83.351562 144 z M 208 160 L 208 176 L 248 176 L 248 192 L 208 192 L 208 208 L 304 208 L 304 192 L 264 192 L 264 176 L 304 176 L 304 160 L 208 160 z M 94.759766 176 L 136 176 L 136 192 L 100.16406 192 C 98.441396 186.6416 96.639879 181.30827 94.759766 176 z M 376 176 L 417.23438 176 C 415.36493 181.3042 413.56598 186.63753 411.83984 192 L 376 192 L 376 176 z M 465.58789 232.00586 A 14.62758 14.62758 0 0 1 475.71484 256.9707 L 300.68555 432 L 180.23633 432 A 47.58931 47.58931 0 0 1 168 400 L 168 384 L 297.37305 384 A 23.843 23.843 0 0 0 314.34375 376.9707 L 455.0293 236.28516 A 14.62758 14.62758 0 0 1 465.58789 232.00586 z M 113.44141 240 L 398.55273 240 C 395.63733 252.49097 393.12179 265.05265 391.00391 277.68359 L 303.0293 365.65625 A 7.94834 7.94834 0 0 1 297.37305 368 L 160 368 A 7.99977 7.99977 0 0 0 152 376 L 152 400 A 63.56092 63.56092 0 0 0 160.55859 432 L 147.31445 432 L 135.70508 420.39062 L 126.85938 323.07617 A 608.22479 608.22479 0 0 0 113.44141 240 z M 380.43164 374.88086 L 376.29492 420.39062 L 364.68555 432 L 323.3125 432 L 380.43164 374.88086 z M 32.802734 448 L 479.19727 448 A 40.07061 40.07061 0 0 1 440 480 L 72 480 A 40.07061 40.07061 0 0 1 32.802734 448 z"></path>
</svg>