<svg xmlns="http://www.w3.org/2000/svg" x="0px" y="0px"
width="32" height="32"
viewBox="0 0 32 32">
<path d="M 9.1875 5 L 9.375 7 L 6 7 L 6 8 L 6.90625 13 L 8.6875 13 L 8.1875 9 L 9.59375 9 L 10 13 L 11.8125 13 L 11.40625 7 L 13 7 L 13 14.78125 C 13 15.84375 14.199219 16.585938 15 16.6875 L 15 8 L 17 8 L 17 16.6875 C 17.800781 16.585938 19 15.832031 19 14.78125 L 19 7 L 20.59375 7 L 20.1875 13 L 22 13 L 22.40625 9 L 23.8125 9 L 23.3125 13 L 25.09375 13 L 26 8 L 26 7 L 22.625 7 L 22.8125 5 L 17 5 L 17 6 L 15 6 L 15 5 Z M 5.84375 14 L 6 15.125 L 7.46875 25.40625 C 7.675781 26.878906 8.949219 28 10.4375 28 L 21.65625 28 C 23.152344 28 24.429688 26.890625 24.625 25.40625 L 26 15.125 L 26.15625 14 L 20 14 L 20 15 C 20 16.535156 18.371094 18 16 18 C 13.628906 18 12 16.535156 12 15 L 12 14 Z M 8.15625 16 L 10.25 16 C 10.828125 18.328125 13.175781 20 16 20 C 18.824219 20 21.171875 18.328125 21.75 16 L 23.84375 16 L 22.625 25.125 C 22.558594 25.628906 22.164063 26 21.65625 26 L 10.4375 26 C 9.929688 26 9.507813 25.625 9.4375 25.125 Z"></path>
</svg>