<svg xmlns="http://www.w3.org/2000/svg" x="0px" y="0px"
width="58" height="58"
viewBox="0 0 468 468">
<path fill="#4f4f4f" d="M226.627,120.013l0.029-0.352c1.45-17.738-3.001-35.457-12.661-50.403l0,0 c-15.352-23.752-6.211-55.595,19.4-67.582L236.977,0l1.376,8.687c2.306,14.564,7.632,28.484,15.636,40.866l0,0 C271.232,76.232,257.353,111.972,226.627,120.013L226.627,120.013z"></path><path fill="#4f4f4f" d="M147.383,195.021c-4.02,0-6.057-3.296-5.957-6.806c1.19-14.565-2.523-29.345-10.455-41.617 c-7.528-11.648-9.65-25.973-5.82-39.303c3.828-13.324,13.223-24.336,25.777-30.211l3.223-1.509 c3.562-1.669,7.859,0.612,8.474,4.496l1.238,7.818c1.957,12.358,6.393,23.953,13.185,34.462 c8.457,13.083,10.07,28.916,4.427,43.437c-5.64,14.512-17.512,25.096-32.573,29.038 C148.401,194.957,147.89,195.021,147.383,195.021z M152.063,90.115c-7.421,4.684-12.921,11.955-15.373,20.492 c-2.872,9.997-1.281,20.742,4.365,29.478c7.733,11.964,12.068,25.948,12.549,40.141c7.584-3.977,13.476-10.534,16.682-18.785 c4.233-10.891,3.023-22.765-3.32-32.579C159.324,117.039,154.311,104.006,152.063,90.115z"></path><path fill="#4f4f4f" d="M317.344,195.021c-4.025,0-6.06-3.303-5.956-6.815c1.19-14.556-2.524-29.336-10.455-41.608 c-7.529-11.648-9.651-25.974-5.821-39.303c3.828-13.325,13.223-24.336,25.777-30.211l3.222-1.509 c3.563-1.669,7.859,0.611,8.474,4.496l1.239,7.818c1.957,12.358,6.393,23.952,13.185,34.462 c8.457,13.083,10.071,28.916,4.428,43.437c-5.64,14.512-17.513,25.096-32.574,29.038 C318.362,194.957,317.851,195.021,317.344,195.021z M322.025,90.115c-7.421,4.684-12.921,11.955-15.373,20.492 c-2.872,9.997-1.282,20.742,4.365,29.478c7.733,11.963,12.068,25.947,12.548,40.141c7.584-3.977,13.475-10.534,16.683-18.785 c4.232-10.891,3.022-22.765-3.321-32.579C329.285,117.039,324.273,104.004,322.025,90.115z"></path><path fill="#4f4f4f" d="M440.779,183.204C440.778,183.204,440.778,183.204,440.779,183.204 c-6.281-6.278-15.017-9.64-23.934-9.196c-8.997,0.436-17.431,4.663-23.153,11.614l-54.44,66.492 c-1.909,0.297-3.744,0.816-5.485,1.521c-4.61-0.716-9.233-0.963-13.868-0.743c-3.041-9.708-8.149-18.544-14.879-25.983 c0.284,0.06,0.568,0.121,0.851,0.182c3.755,0.808,7.298-2.038,7.298-5.878c0-2.845-1.988-5.298-4.77-5.893 c-22.799-4.874-48.525-7.59-75.938-7.59c-43.319,0-82.429,6.781-112.427,18.141l-54.097-54.173 c-10.738-10.753-28.985-10.777-39.748,0c-10.921,10.937-10.921,28.732,0,39.667l45.168,45.232 c-9.799,11.457-14.464,26.689-9.081,41.254c7.023,30.224,22.809,57.265,45.674,78.213c3.665,3.358,7.479,6.501,11.411,9.45 c-4.353,7.311-7.718,14.966-7.718,21.181c0,16.844,12.616,30.677,28.55,31.868c3.758,3.236,7.961,6.297,12.611,9.145 C174.175,460.792,202.464,468,232.462,468s58.287-7.208,79.657-20.294c5.082-3.112,9.62-6.484,13.629-10.058 c16.858-0.139,30.533-14.417,30.533-31.954c0-6.662-3.865-14.979-8.671-22.752c5.034-3.897,9.841-8.121,14.381-12.665 c19.659-19.68,33.581-44.379,40.283-71.442c4.769-11.955,2.848-25.235-4.015-35.95l40.071-32.381 C452.802,218.802,454.04,196.463,440.779,183.204z M343.12,263.815c7.171,0,13.006,5.833,13.006,13.001 c0,7.169-5.835,13.001-13.006,13.001c-7.171,0-13.005-5.833-13.005-13.001C330.115,269.647,335.949,263.815,343.12,263.815z M195.148,221.539c12.085-1.192,24.582-1.808,37.313-1.808c16.564,0,32.738,1.039,48.113,3.039 c14.675,7.935,25.23,21.682,29.006,37.883c0.696,2.98,3.508,4.961,6.562,4.596c1.739-0.209,3.395-0.337,5.021-0.396 c-1.016,1.856-1.797,3.856-2.318,5.958c-6.238-0.025-12.595,1.397-18.62,4.118c-2.734-7.851-6.882-15.178-12.177-21.606 c0.389-4.606,0.04-9.274-0.896-13.796c-0.425-2.469-2.34-4.414-4.802-4.878c-5.941-1.122-11.951-0.998-17.702,0.23 c-9.479-4.606-19.954-7.067-30.576-7.067c-20.435,0-39.214,8.939-52.175,23.39c-3.344-3.679-7.756-6.37-12.754-7.55 C175.306,233.982,184.29,226.224,195.148,221.539z M294.683,324.878c-20.169-0.535-38.398-6.519-43.56-28.874 c-0.17-0.737-0.396-1.451-0.652-2.15c5.354-0.863,10.518-2.695,15.238-5.405c7.11,23.655,21.907,23.013,42.363,25.641 C303.063,316.735,298.336,320.532,294.683,324.878z M331.039,320.927c0.608,5.327-0.071,10.562-1.922,15.379 c-9.847,3.09-20.416,5.674-31.53,7.726c1.569-5.089,4.397-9.782,8.389-13.71C312.773,323.635,321.742,320.329,331.039,320.927z M266.396,272.992c-6.797,6.688-15.761,10-25.063,9.396c-1.153-10.093,2.295-19.867,9.619-27.073 c6.797-6.688,15.769-9.997,25.063-9.396C277.169,256.012,273.721,265.786,266.396,272.992z M176.405,267.981 c0,7.169-5.834,13.001-13.005,13.001c-7.171,0-13.005-5.833-13.005-13.001s5.834-13.001,13.005-13.001 C170.571,254.98,176.405,260.812,176.405,267.981z M71.883,284.736c0-16.172,16.454-32.461,45.142-44.688 c15.067-6.422,32.604-11.426,51.712-14.863c-5.607,5.581-10.253,12.074-13.704,19.238c-5.072,1.806-9.377,5.216-12.345,9.602 c-28.964-1.732-56.654,14.473-68.556,41.13C72.649,291.703,71.883,288.217,71.883,284.736z M82.425,307.259 c7.29-24.553,29.722-41.444,55.608-41.444c-0.13,0,1.909,10.956,2.531,12.346c-21.248,4.218-39.29,18.181-48.96,37.118 C88.104,312.679,85.029,310,82.425,307.259z M113.279,327.768c-4.135-1.886-7.997-3.858-11.56-5.904 c8.848-18.352,27.09-31.347,48.131-32.883c3.908,2.529,8.558,4.004,13.55,4.004c13.791,0,25.011-11.216,25.011-25.003 c0-1.772-0.206-3.493-0.559-5.162c10.715-14.086,27.641-23.006,46.222-23.006c5.048,0,9.957,0.652,14.65,1.865 c-4.493,3.066-8.305,6.823-11.436,11.271c-1.065-0.08-2.135-0.135-3.215-0.135c-21.37,0-39.932,15.193-44.136,36.127 c-1.763,8.781-9.708,15.273-18.588,15.27c-4.497-4.318-10.596-6.981-17.31-6.981c-7.63,0-14.468,3.437-19.059,8.839 C125.458,310.538,117.75,318.247,113.279,327.768z M229.294,282.346c-6.805,1.606-12.283,7.074-13.699,14.189 c-2.051,10.311-8.319,19.372-17.196,24.86c-5.883,3.637-12.662,5.559-19.606,5.559c0.434-3.212,0.248-8.22-0.695-11.54 c11.595-2.588,21.264-12.426,23.611-24.112c2.9-14.438,15.117-25.148,29.602-26.367 C229.511,270.497,228.816,276.411,229.294,282.346z M167.046,322.233c0,7.169-5.834,13.001-13.005,13.001 s-13.005-5.833-13.005-13.001c0-7.169,5.834-13.001,13.005-13.001S167.046,315.064,167.046,322.233z M132.74,335.319 c-2.851-0.94-5.635-1.925-8.353-2.95c1.287-2.623,2.913-5.047,4.819-7.223C129.636,328.841,130.873,332.293,132.74,335.319z M142.424,426.653c-10.352,0-18.774-8.954-18.774-19.959c0-7.431,10.192-22.311,18.774-32.803 c8.894,10.89,18.774,25.696,18.774,32.803C161.197,417.699,152.775,426.653,142.424,426.653z M155.897,435.424 c9.009-4.577,15.561-13.592,17.001-24.285c11.114,2.807,22.484,4.158,33.892,5.05c-3.016,5.815-5.107,11.609-5.107,16.508 c0,8.427,3.163,16.098,8.313,21.814C191,451.978,171.922,446.159,155.897,435.424z M232.462,452.656 c-10.352,0-18.774-8.954-18.774-19.959c0-7.43,10.192-22.311,18.774-32.803c8.895,10.89,18.774,25.696,18.774,32.803 C251.236,443.701,242.814,452.656,232.462,452.656z M222.109,346.985c0-7.169,5.834-13.001,13.005-13.001 c7.171,0,13.006,5.833,13.006,13.001c0,0.837-0.09,1.651-0.244,2.442c-5.093,0.201-10.232,0.314-15.414,0.314 c-3.378,0-6.734-0.056-10.077-0.142C222.21,348.754,222.109,347.881,222.109,346.985z M235.115,321.982 c-13.791,0-25.011,11.216-25.011,25.003c0,0.708,0.032,1.407,0.09,2.1c-15.176-0.872-29.855-2.611-43.67-5.2 c2.418-1.399,4.58-3.189,6.401-5.286c10.859,1.312,22.503-1.255,31.787-6.996c11.7-7.233,19.958-19.162,22.657-32.726 c0.579-2.911,3.125-5.025,6.053-5.025c2.693,0,5.385,2.176,6.003,4.852c5.227,22.634,24.892,38.464,47.878,38.589 c-1.121,2.848-1.954,5.804-2.475,8.827c-8.041,1.151-16.32,2.029-24.768,2.636c0.042-0.585,0.065-1.175,0.065-1.77 C260.125,333.198,248.906,321.982,235.115,321.982z M254.927,454.51c5.151-5.716,8.313-13.387,8.313-21.814 c0-4.993-2.171-10.917-5.28-16.844c12.428-1.277,24.891-3.337,36.954-6.625c1.143,10.739,7.433,19.885,16.24,24.728 C294.769,445.657,274.719,451.872,254.927,454.51z M325.5,425.653c-10.352,0-18.774-8.954-18.774-19.959 c0-7.43,10.192-22.311,18.774-32.803c8.583,10.492,18.775,25.373,18.775,32.803C344.275,416.698,335.853,425.653,325.5,425.653z M342.672,331.552c0.757-4.783,0.764-9.71-0.08-14.606l-0.415-2.411c-0.425-2.469-2.34-4.414-4.802-4.878 c-3.066-0.579-6.149-0.812-9.208-0.752c-8.726-5.549-19.211-7.979-29.483-6.744c-9.64,1.157-18.575-5.1-20.777-14.554 c-0.558-2.394-1.32-4.706-2.247-6.928c3.513-3.649,6.347-7.812,8.421-12.305c2.906,4.961,5.125,10.421,6.491,16.282 c0.696,2.98,3.508,4.961,6.562,4.596c2.431-0.292,4.71-0.434,6.969-0.434c6.767,0,13.257,1.183,19.297,3.325 c4.062,5.215,10.134,8.786,17.048,9.526c7.559,6.095,13.559,14.041,17.311,23.146C352.861,327.325,347.798,329.55,342.672,331.552z M368.249,318.793c-3.26-7.422-7.776-14.168-13.27-19.984c5.553-3.007,9.852-8.043,11.874-14.118 c6.177,7.073,10.683,15.698,12.854,25.323C376.445,313.036,372.612,315.973,368.249,318.793z M388.912,298.852 c-2.613-7.168-6.341-13.749-10.963-19.557l10.891-8.801C394.196,279.582,394.227,289.742,388.912,298.852z M436.135,206.711 c-0.269,5.091-2.617,9.675-6.612,12.905l-61.391,49.609c-0.55-0.461-1.102-0.918-1.666-1.361 c-2.139-5.554-6.201-10.161-11.373-12.992l49.425-60.366c3.204-3.893,7.945-6.266,13.005-6.511 c5.072-0.249,9.809,1.57,13.351,5.113C434.537,196.766,436.405,201.598,436.135,206.711z"></path><ellipse cx="326.854" cy="228.702" fill="#4f4f4f" rx="7.003" ry="7.001"></ellipse>
</svg>