<svg xmlns="http://www.w3.org/2000/svg" x="0px" y="0px"
width="32" height="32"
viewBox="0 0 32 32">
<path d="M 12.138672 1.8886719 C 11.258578 1.9133047 10.312542 2.2911713 9.5175781 3.0996094 C 8.7468822 3.8830676 8.4952017 4.9439941 8.578125 5.9023438 C 8.5935849 6.0810147 8.6278082 6.2552949 8.6621094 6.4296875 C 7.8644533 6.3754135 6.9591678 6.6280843 6.2949219 7.2910156 C 5.3032405 8.2751269 5.3386136 9.7257766 5.7773438 10.855469 C 5.8398692 11.016466 5.923942 11.168375 6 11.324219 L 6 12 C 6 12.967414 6.2535216 13.648204 6.4433594 14.175781 C 5.6706325 14.618733 5.1630157 15.341483 4.6894531 16.183594 C 4.1964347 17.060301 3.7820913 18.082874 3.4824219 19.099609 C 3.2815983 19.783771 3.1908553 20.67462 3.1152344 21.474609 C 3.0396134 22.274599 3.0019531 22.943359 3.0019531 22.943359 L 3 22.972656 L 3 23 C 3 24.944444 4.3482939 26.542311 6.3027344 27.519531 C 8.2571749 28.496752 10.888889 29 14 29 C 16.594885 29 19.465338 28.640552 21.349609 27.9375 L 21.326172 27.876953 C 22.231006 28.69736 23.475959 29.049157 24.695312 28.994141 C 26.266903 28.923231 27.882235 28.240397 29.09375 26.992188 C 30.18939 25.863238 30.867694 24.352772 30.982422 22.824219 C 31.09715 21.295666 30.57728 19.661227 29.183594 18.695312 C 28.541567 18.24978 27.849228 18.054455 27.191406 18.046875 C 26.533585 18.039275 25.910159 18.220244 25.402344 18.529297 C 25.086185 18.721708 24.80446 18.950313 24.535156 19.189453 C 24.527365 19.161115 24.523781 19.125364 24.515625 19.097656 C 24.452545 18.884238 24.384221 18.667672 24.308594 18.449219 C 23.999243 17.544674 23.607433 16.662751 23.150391 15.908203 C 22.705661 15.173984 22.227946 14.54511 21.521484 14.152344 C 21.750697 13.593069 22 12.912 22 12 L 22 11.074219 C 22.045005 10.980935 22.100519 10.89196 22.140625 10.796875 C 22.371121 10.250401 22.521518 9.6643339 22.486328 9.046875 C 22.451133 8.4294556 22.193196 7.7791334 21.707031 7.2929688 C 21.274205 6.8601428 20.750335 6.6121641 20.208984 6.5 C 20.025529 6.4619893 19.840848 6.4597015 19.65625 6.4511719 C 19.381023 5.6275365 18.789735 4.9914832 18.177734 4.6054688 C 17.32001 4.0644659 16.415116 3.7643508 15.785156 3.3925781 L 15.779297 3.3886719 C 14.924768 2.8744685 14.06949 2.248404 12.988281 1.9785156 C 12.717375 1.9108927 12.432036 1.8804609 12.138672 1.8886719 z M 12.994141 4.1054688 C 13.481461 4.3306136 14.077493 4.7008138 14.753906 5.1074219 A 1.0001 1.0001 0 0 0 14.759766 5.1113281 C 15.649611 5.6382102 16.556289 5.9467882 17.111328 6.296875 C 17.401938 6.4801748 17.557298 6.6357808 17.662109 6.8164062 C 16.672515 7.2019294 15.805695 7.7905418 15.160156 8.2871094 C 14.821892 8.5462206 14.348781 8.79842 13.857422 9.1289062 C 13.383538 8.8097786 12.923737 8.5315425 12.615234 8.2910156 A 1.0001 1.0001 0 0 0 12.605469 8.2832031 C 12.200981 7.9754163 11.69704 7.6341551 11.154297 7.3183594 C 10.849434 6.796401 10.612493 6.2179483 10.570312 5.7304688 C 10.523987 5.1950683 10.627055 4.8234949 10.943359 4.5019531 C 10.994236 4.4502144 11.029283 4.4273258 11.076172 4.3828125 A 1 1 0 0 0 12 5 A 1 1 0 0 0 12.994141 4.1054688 z M 13.5 6 A 0.5 0.5 0 0 0 13.5 7 A 0.5 0.5 0 0 0 13.5 6 z M 19.445312 8.4121094 C 19.810402 8.3842413 20.057208 8.4712697 20.292969 8.7070312 C 20.436804 8.8508665 20.478549 8.9570682 20.490234 9.1621094 C 20.501924 9.3671505 20.445834 9.6710056 20.298828 10.019531 C 20.021295 10.677523 19.40871 11.441353 18.789062 12.029297 C 18.077313 12.340552 17.15283 12.655518 16.058594 12.830078 C 16.056194 12.830457 16.055134 12.831631 16.052734 12.832031 A 1.0001 1.0001 0 0 0 16.035156 12.833984 C 15.820805 12.869708 15.581797 12.890667 15.347656 12.914062 C 15.64902 12.076013 15.574587 11.254098 15.294922 10.605469 C 15.637671 10.391459 15.956158 10.197155 16.378906 9.8730469 C 16.5577 9.7355131 16.76162 9.5898578 16.978516 9.4472656 C 17.195411 9.3046734 17.42554 9.1659938 17.660156 9.0371094 C 18.129389 8.7793404 18.613423 8.5669035 19.03125 8.4765625 A 1.0001 1.0001 0 0 0 19.037109 8.4765625 C 19.189205 8.4427635 19.323616 8.4213987 19.445312 8.4121094 z M 8.5273438 8.4257812 C 8.8934194 8.4509193 9.3932403 8.6225589 9.8984375 8.8925781 C 10.425163 9.1734981 10.959145 9.5437281 11.394531 9.875 C 12.111182 10.431474 12.851708 10.787017 13.232422 11.111328 A 1.0001 1.0001 0 0 0 13.271484 11.140625 A 1.0001 1.0001 0 0 0 13.273438 11.140625 A 1.0001 1.0001 0 0 0 13.273438 11.142578 C 13.298148 11.165398 13.328781 11.194355 13.369141 11.234375 C 13.637208 11.529409 13.728554 11.581294 13.460938 12.267578 C 13.388198 12.439331 13.290191 12.586762 13.183594 12.693359 A 1.0001 1.0001 0 0 0 13.167969 12.708984 C 13.084069 12.796534 12.942679 12.87126 12.810547 12.947266 C 12.48126 12.928417 12.154195 12.894235 11.841797 12.849609 L 11.800781 12.84375 C 11.521069 12.805806 11.253195 12.761242 10.996094 12.710938 C 10.246296 12.558442 9.6152435 12.353336 9.1132812 12.140625 C 8.5050011 11.578588 7.9040316 10.809108 7.640625 10.130859 C 7.3618552 9.4130517 7.3867595 9.0248731 7.7050781 8.7089844 A 1.0001 1.0001 0 0 0 7.7070312 8.7070312 C 7.962076 8.4519866 8.1612681 8.4006431 8.5273438 8.4257812 z M 19.443359 13.941406 C 19.426622 13.998823 19.417951 14.0534 19.394531 14.115234 L 19.382812 14.148438 L 19.373047 14.183594 C 19.199092 14.763444 18.746558 15.171094 17.800781 15.503906 C 16.855041 15.836719 15.489438 16 13.939453 16 C 12.371922 16 10.966328 15.862306 10.021484 15.544922 C 9.0766415 15.227538 8.6934573 14.878198 8.5703125 14.271484 L 8.5664062 14.253906 L 8.5625 14.236328 C 8.5469636 14.171439 8.5349887 14.128462 8.5214844 14.078125 C 9.3716562 14.412714 10.388061 14.675608 11.556641 14.832031 L 11.623047 14.839844 L 11.65625 14.839844 C 11.980132 14.884134 12.321108 14.920444 12.675781 14.941406 C 12.765961 14.952676 12.887448 14.970703 13.050781 14.970703 C 13.363309 14.989528 13.680838 15 14 15 C 14.220007 15 14.469395 14.994882 14.730469 14.978516 A 1.0001 1.0001 0 0 0 14.830078 14.976562 L 14.835938 14.976562 L 15.15625 14.947266 L 15.169922 14.945312 C 15.536233 14.916895 15.895025 14.875999 16.251953 14.820312 L 16.289062 14.820312 L 16.367188 14.808594 C 17.561817 14.618969 18.598326 14.29522 19.443359 13.941406 z M 20.623047 15.966797 C 20.801579 16.099551 21.126163 16.424867 21.441406 16.945312 C 21.800114 17.537516 22.146367 18.307248 22.416016 19.095703 L 22.417969 19.097656 L 22.417969 19.099609 C 22.481849 19.28394 22.541081 19.472648 22.597656 19.664062 C 22.664623 19.891562 22.745904 20.433025 22.814453 20.990234 C 22.238025 21.580878 21.381919 22.186591 20.710938 23.078125 C 20.351678 23.555474 20.049682 24.160392 20.005859 24.865234 C 19.979196 25.294113 20.059543 25.738185 20.220703 26.185547 C 18.706198 26.654936 16.194763 27 14 27 C 11.111111 27 8.7428251 26.503248 7.1972656 25.730469 C 5.6547657 24.959219 5.004529 24.05872 5.0019531 23.005859 C 5.0044731 22.961859 5.0364481 22.392276 5.1054688 21.662109 C 5.1770977 20.904349 5.3081673 19.984901 5.4023438 19.664062 L 5.4003906 19.664062 C 5.6607212 18.780798 6.032909 17.873106 6.4316406 17.164062 C 6.7421268 16.611942 7.0585534 16.261811 7.2773438 16.064453 C 7.8057973 16.709849 8.5671047 17.166745 9.3847656 17.441406 C 10.702422 17.884022 12.266984 18 13.939453 18 C 15.619469 18 17.16562 17.847813 18.464844 17.390625 C 19.311162 17.092811 20.078514 16.621796 20.623047 15.966797 z M 27.162109 19.955078 C 27.393882 19.955842 27.652496 20.066923 28.042969 20.337891 A 1.0001 1.0001 0 0 0 28.042969 20.339844 C 28.783282 20.852929 29.064553 21.657631 28.988281 22.673828 C 28.912011 23.690025 28.406516 24.828606 27.660156 25.597656 C 27.175716 26.09677 26.572751 26.453542 25.951172 26.689453 A 1 1 0 0 0 25 26 A 1 1 0 0 0 24.001953 26.964844 C 23.259434 26.876261 22.676714 26.55854 22.337891 26.005859 C 22.038983 25.518294 21.987995 25.212783 22.001953 24.988281 C 22.015913 24.76378 22.101223 24.556776 22.308594 24.28125 C 22.723324 23.730197 23.629289 23.088675 24.427734 22.205078 C 25.176139 21.376597 25.874287 20.581473 26.441406 20.236328 C 26.724966 20.063756 26.930337 19.954315 27.162109 19.955078 z M 27.5 23 A 0.5 0.5 0 0 0 27.5 24 A 0.5 0.5 0 0 0 27.5 23 z M 24.5 24 A 0.5 0.5 0 0 0 24.5 25 A 0.5 0.5 0 0 0 24.5 24 z"></path>
</svg>