<svg xmlns="http://www.w3.org/2000/svg" x="0px" y="0px"
width="50" height="50"
viewBox="0 0 50 50">
<path d="M 33 6 C 32.125 6 31.304688 6.199219 30.625 6.65625 C 30.246094 6.910156 30.035156 7.363281 29.761719 7.742188 C 28.953125 7.308594 28.050781 7 27 7 C 25.226563 7 23.664063 7.9375 22.777344 9.34375 C 22.222656 9.128906 21.625 9 21 9 C 20.515625 9 20.113281 9.203125 19.675781 9.335938 C 18.820313 7.863281 17.175781 7 15.5 7 C 13.5625 7 11.941406 8.265625 11.300781 10 C 11.21875 10 11.035156 10 11 10 C 9.894531 10 8.636719 10.199219 7.53125 10.9375 C 6.558594 11.585938 5.769531 12.65625 5.351563 14.144531 C 3.960938 14.003906 3 14 3 14 C 2.71875 14 2.449219 14.117188 2.261719 14.324219 C 2.070313 14.535156 1.976563 14.8125 2.003906 15.09375 C 2.003906 15.09375 2.253906 18.113281 3.578125 21 L 3.046875 21 C 1.855469 21 0.949219 22.050781 1 23.21875 C 1.25 28.945313 3.222656 33.441406 5.21875 36.59375 C 6.21875 38.171875 7.222656 39.421875 8.03125 40.324219 C 8.835938 41.226563 9.503906 41.863281 9.582031 41.953125 L 9.585938 41.953125 C 10.742188 43.21875 12.464844 43.683594 14.753906 43.875 C 17.042969 44.066406 20.011719 44 24 44 L 26 44 C 29.988281 44 32.960938 44.0625 35.25 43.871094 C 37.535156 43.675781 39.257813 43.207031 40.417969 41.941406 C 40.496094 41.855469 41.164063 41.21875 41.96875 40.3125 C 42.777344 39.410156 43.78125 38.167969 44.78125 36.589844 C 46.777344 33.4375 48.75 28.941406 49 23.21875 C 49.050781 22.050781 48.144531 21 46.953125 21 L 46.5625 21 C 48.046875 17.226563 48 13.804688 48 13.804688 C 47.996094 13.386719 47.726563 13.015625 47.332031 12.875 C 47.332031 12.875 45.375 12.167969 42.628906 12.015625 C 42.335938 12 42.03125 11.992188 41.71875 11.988281 C 40.945313 10.160156 39.050781 9 37 9 C 36.929688 9 36.867188 9.003906 36.796875 9.007813 C 36.34375 7.296875 34.84375 6 33 6 Z M 33 8 C 34.117188 8 35 8.882813 35 10 C 35 10 35.078125 10.394531 35.078125 10.394531 C 35.082031 10.394531 35.195313 10.605469 35.257813 10.671875 C 35.382813 10.8125 35.488281 10.867188 35.5625 10.90625 C 35.71875 10.980469 35.789063 10.988281 35.84375 11 C 35.960938 11.019531 36.011719 11.015625 36.070313 11.019531 C 36.183594 11.023438 36.289063 11.019531 36.398438 11.015625 C 36.621094 11.011719 36.871094 11 37 11 C 38.015625 11 38.910156 11.433594 39.472656 12.121094 C 37.433594 12.375 35.242188 13.046875 33.207031 14.476563 C 31.675781 15.550781 30.605469 16.742188 29.875 17.957031 C 28.984375 16.453125 27.632813 15.253906 26 14.589844 L 26 14 C 26 12.59375 25.40625 11.320313 24.460938 10.410156 C 24.988281 9.566406 25.921875 9 27 9 C 28.03125 9 28.800781 9.300781 29.359375 9.765625 C 29.597656 9.96875 29.917969 10.042969 30.222656 9.976563 C 30.527344 9.90625 30.78125 9.699219 30.910156 9.414063 C 31.171875 8.839844 31.441406 8.515625 31.742188 8.3125 C 32.042969 8.113281 32.410156 8 33 8 Z M 15.5 9 C 16.5 9 17.742188 9.71875 18.082031 10.417969 L 18.207031 10.785156 C 18.300781 11.066406 18.511719 11.289063 18.785156 11.398438 C 19.054688 11.507813 19.363281 11.492188 19.621094 11.355469 C 20.054688 11.128906 20.511719 11 21 11 C 22.667969 11 24 12.332031 24 14 L 24 14.066406 C 23.671875 14.027344 23.339844 14 23 14 C 19.851563 14 17.125 15.839844 15.820313 18.496094 C 15.417969 18.003906 14.972656 17.542969 14.453125 17.144531 C 12.363281 15.546875 9.632813 14.816406 7.359375 14.421875 C 7.664063 13.496094 8.117188 12.953125 8.640625 12.601563 C 9.296875 12.164063 10.140625 12 11 12 C 11.078125 12 11.527344 12.003906 12.003906 12 C 12.5 11.996094 12.917969 11.632813 12.988281 11.144531 C 13.164063 9.953125 14.238281 9 15.5 9 Z M 41.558594 13.972656 C 43.710938 13.988281 45.394531 14.472656 45.929688 14.632813 C 45.898438 15.566406 45.730469 18.058594 44.398438 21 L 38.492188 21 C 39.625 19.570313 41.316406 18.949219 41.316406 18.949219 C 41.78125 18.800781 42.070313 18.339844 42.003906 17.859375 C 41.9375 17.375 41.535156 17.011719 41.046875 16.996094 C 40.921875 16.992188 40.800781 17.011719 40.683594 17.050781 C 40.683594 17.050781 37.550781 18.046875 36.132813 21 L 30.921875 21 C 30.902344 20.859375 30.882813 20.71875 30.859375 20.578125 C 31.285156 19.105469 32.269531 17.582031 34.359375 16.109375 C 36.519531 14.589844 38.847656 14.074219 40.859375 13.988281 C 40.964844 14.003906 41.078125 14.003906 41.1875 13.984375 C 41.308594 13.980469 41.4375 13.972656 41.558594 13.972656 Z M 23 16 C 25.816406 16 28.160156 17.921875 28.8125 20.527344 C 28.773438 20.683594 28.730469 20.84375 28.703125 21 L 17.3125 21 C 17.265625 20.882813 17.203125 20.777344 17.152344 20.660156 C 17.757813 17.984375 20.136719 16 23 16 Z M 4.214844 16.113281 C 4.855469 16.136719 5.355469 16.113281 6.820313 16.355469 C 8.964844 16.707031 11.546875 17.441406 13.238281 18.734375 C 14.011719 19.324219 14.617188 20.082031 15.078125 20.933594 C 15.078125 20.957031 15.070313 20.976563 15.066406 21 L 11.414063 21 L 8.707031 18.292969 C 8.519531 18.097656 8.261719 17.992188 7.992188 17.988281 C 7.582031 17.992188 7.21875 18.238281 7.0625 18.613281 C 6.910156 18.992188 7 19.421875 7.292969 19.707031 L 8.585938 21 L 5.8125 21 C 4.789063 19.191406 4.402344 17.269531 4.214844 16.113281 Z M 3.046875 23 L 4.964844 23 C 5.15625 23.058594 5.367188 23.058594 5.558594 23 L 10.847656 23 C 10.957031 23.019531 11.070313 23.019531 11.179688 23 L 15.832031 23 C 15.941406 23.019531 16.050781 23.019531 16.15625 23 L 29.832031 23 C 29.941406 23.019531 30.050781 23.019531 30.15625 23 L 46.953125 23 C 46.933594 23 47.003906 23.015625 47 23.132813 C 46.921875 24.886719 46.664063 26.5 46.296875 28 L 3.703125 28 C 3.339844 26.503906 3.078125 24.886719 3 23.136719 C 2.996094 23.019531 3.066406 23 3.046875 23 Z M 4.273438 30 L 45.722656 30 C 44.996094 32.15625 44.050781 34.003906 43.09375 35.519531 C 42.164063 36.984375 41.226563 38.144531 40.476563 38.984375 C 39.726563 39.824219 39.230469 40.273438 38.9375 40.59375 C 38.292969 41.300781 37.175781 41.699219 35.078125 41.875 C 32.976563 42.054688 30.011719 42 26 42 L 24 42 C 19.988281 42 17.019531 42.058594 14.921875 41.882813 C 12.820313 41.707031 11.707031 41.3125 11.0625 40.605469 L 11.058594 40.605469 C 10.765625 40.285156 10.273438 39.835938 9.523438 38.996094 C 8.773438 38.152344 7.835938 36.992188 6.90625 35.527344 C 5.949219 34.011719 5 32.160156 4.273438 30 Z"></path>
</svg>